<svg id="v2" xmlns="http://www.w3.org/2000/svg" viewBox="0 0 256 256"><defs><linearGradient id="grad-md" x1="0" x2="0" y1="0" y2="1"><stop class="stop-md1" offset="0%"/><stop class="stop-md2" offset="100%"/></linearGradient><linearGradient id="grad-sm" x1="0" x2="0" y1="0" y2="1"><stop class="stop-sm1" offset="0%"/><stop class="stop-sm2" offset="100%"/></linearGradient><style>.inside-md, .inside-sm {fill-rule:evenodd;}.inside-md {fill:#db7216;}.inside-sm {fill:#c85615;}.stop-md1 { stop-color: #b33434; stop-opacity: 66%; }.stop-md2 { stop-color: #792323; stop-opacity: 66%; }.stop-sm1 { stop-color: #71072d; }.stop-sm2 { stop-color: #4e051f; }</style></defs><g id="SVG_Export"><path d="M118.4 24.591c2.563-3.9 6.125-7.4 9.81-7.574C134.05 17.2 138 25 138 25l107 157-107 53s-6.188 3-10 3c-3.969 0-10-3-10-3L11 182Z" style="fill-rule:evenodd;fill:#f49309"/><path class="inside-md" d="m245 182-107 53a36 36 0 0 1-8.749 2.9c-.506-4.014.763-5.879.763-5.879l63.262-125.919Z"/><path class="inside-sm" d="m131.236 237.514 89.089-91.72L245 182l-107 53a41.764 41.764 0 0 1-6.764 2.514Z"/><path class="inside-md" d="M118 235 11 182l52.922-78.385 64.514 128.41a16.878 16.878 0 0 1 .662 5.9A9.486 9.486 0 0 1 128 238c-3.969 0-10-3-10-3Z"/><path class="inside-sm" d="m11 182 25.544-37.834 91.128 93.82C123.708 237.834 118 235 118 235Z"/><g id="center" transform="translate(0 0.75)"><path d="M138 235s-6.188 3-10 3c-3.969 0-10-3-10-3l-94.159-46.64 93.688-90.445c2.369-2.545 7.422-5 10.109-5 2.608 0 7.424 2.7 10.11 5l93.933 90.685Z" fill="url(#grad-md)"/><path d="m48.746 200.7 68.783-34.347c2.527-1.725 5.055-2.588 10.109-2.588s7.582.863 10.11 2.588l69.143 34.526L138 235s-6.188 3-10 3c-3.969 0-10-3-10-3Z" fill="url(#grad-sm)"/></g></g></svg>